<?xml version="1.0" standalone="no"?>
<!DOCTYPE svg PUBLIC "-//W3C//DTD SVG 20010904//EN"
 "http://www.w3.org/TR/2001/REC-SVG-20010904/DTD/svg10.dtd">
<svg version="1.0" xmlns="http://www.w3.org/2000/svg"
 width="240.000000pt" height="240.000000pt" viewBox="0 0 240.000000 240.000000"
 preserveAspectRatio="xMidYMid meet">
<metadata>
Created by potrace 1.14, written by Peter Selinger 2001-2017
</metadata>
<g transform="translate(0.000000,240.000000) scale(0.100000,-0.100000)"
fill="#000000" stroke="none">
<path d="M229 2386 c-112 -30 -185 -103 -214 -213 -23 -86 -18 -1918 5 -1975
31 -77 75 -124 146 -159 l69 -34 966 0 966 0 69 35 c56 28 76 46 105 89 20 30
41 75 47 100 8 32 11 337 9 991 -2 1025 1 969 -58 1056 -29 42 -80 81 -139
105 -49 19 -1899 25 -1971 5z"/>
</g>
</svg>
