<?xml version="1.0" encoding="utf-8"?>
<!-- Generator: Adobe Illustrator 16.0.0, SVG Export Plug-In . SVG Version: 6.00 Build 0)  -->
<!DOCTYPE svg PUBLIC "-//W3C//DTD SVG 1.1//EN" "http://www.w3.org/Graphics/SVG/1.1/DTD/svg11.dtd">
<svg version="1.1" id="Layer_1" xmlns="http://www.w3.org/2000/svg" xmlns:xlink="http://www.w3.org/1999/xlink" x="0px" y="0px"
	 width="35.293px" height="24px" viewBox="0 0 35.293 24" enable-background="new 0 0 35.293 24" xml:space="preserve">
<g>
	<g>
		<path fill="#FFFFFF" d="M32.443,1H3.171C1.806,1,1,1.811,1,2.842v18.315C1,22.188,1.806,23,3.171,23h29.272
			c1.024,0,1.83-0.812,1.83-1.842V2.842C34.272,1.811,33.467,1,32.443,1z"/>
		<path fill="#FFFFFF" d="M32.443,1c1.024,0,1.83,0.811,1.83,1.842v18.315c0,1.03-0.806,1.842-1.83,1.842H3.171
			C1.806,23,1,22.188,1,21.158V2.842C1,1.811,1.806,1,3.171,1H32.443 M32.443,0H3.171C1.333,0,0,1.195,0,2.842v18.315
			C0,22.805,1.333,24,3.171,24h29.272c1.587,0,2.83-1.249,2.83-2.842V2.842C35.272,1.249,34.03,0,32.443,0L32.443,0z"/>
	</g>
	<path d="M26.788,19.046c-0.043-0.041-0.063-0.041-0.129-0.021c-0.031,0.031-0.074,0.031-0.086,0.012
		c-0.01-0.012-0.041-0.042-0.074-0.053c-0.031-0.008-0.054-0.051-0.054-0.102s0.021,0.094-0.011,0.012
		c-0.033-0.113-0.033-0.156-0.012-0.156s0.021-0.008-0.01-0.029c-0.055-0.031-0.086-0.132-0.119-0.357
		c0-0.031-0.061-0.271-0.102-0.529c-0.029-0.246-0.07-0.605-0.081-0.782c-0.041-0.729-0.041-0.749-0.153-0.821
		c-0.062-0.031-0.145-0.113-0.196-0.166c-0.062-0.082-0.071-0.113-0.062-0.236c0.012-0.082,0.021-0.153,0.021-0.174
		c0-0.041,0.174-0.113,0.255-0.094c0.093,0.021,0.093,0.021,0.134-0.227c0.01-0.051,0.03-0.246,0.051-0.42
		c0.012-0.186,0.062-0.475,0.092-0.648c0.041-0.175,0.072-0.361,0.082-0.402c0.011-0.154,0.112-0.535,0.145-0.545
		c0.009-0.009,0.02-0.051,0.02-0.092c0-0.174,0.338-0.884,0.573-1.194c0.093-0.112,0.226-0.257,0.298-0.318
		c0.071-0.051,0.164-0.144,0.215-0.195c0.041-0.051,0.144-0.134,0.226-0.175c0.083-0.042,0.165-0.082,0.165-0.094
		c0.01-0.009,0.104-0.039,0.215-0.061c0.152-0.03,0.217-0.03,0.316,0c0.062,0.022,0.156,0.032,0.185,0.032
		c0.041,0,0.072,0.021,0.082,0.029c0,0.022,0.113,0.073,0.246,0.115c0.123,0.041,0.276,0.102,0.328,0.123
		c0.052,0.031,0.124,0.052,0.174,0.062c0.226,0.051,0.44,0.338,0.563,0.792c0.082,0.308,0.082,1.007,0,1.397
		c-0.133,0.597-0.287,0.854-0.881,1.461c-0.666,0.689-1.311,1.131-1.722,1.183c-0.092,0.011-0.173,0.03-0.185,0.042
		c-0.03,0.051-0.021,1.184,0.021,1.492c0.041,0.4,0.217,0.904,0.238,0.926c0.044,0.031,0.119,0.145,0.107,0.174
		c-0.031,0.041-0.354,0.031-0.406-0.021c-0.033-0.029-0.043-0.021-0.086,0.021c-0.032,0.051-0.043,0.051-0.055,0.01
		c-0.021-0.039-0.043-0.039-0.086-0.021c-0.031,0.021-0.074,0.021-0.085,0.01c-0.011-0.01-0.042,0.011-0.063,0.041
		C26.851,19.098,26.84,19.098,26.788,19.046z M27.515,15.241c0-0.011,0.071-0.052,0.142-0.103c0.176-0.123,0.77-0.74,0.852-0.896
		c0.236-0.421,0.328-0.709,0.369-1.142c0.031-0.338-0.072-1.007-0.145-1.007c-0.041,0-0.391,0.37-0.513,0.554
		c-0.298,0.453-0.522,1.029-0.654,1.668c-0.042,0.185-0.083,0.349-0.094,0.359c-0.011,0.01-0.03,0.124-0.05,0.258
		c-0.021,0.123-0.053,0.266-0.062,0.318c-0.02,0.092-0.011,0.092,0.062,0.051C27.463,15.282,27.504,15.251,27.515,15.241z
		 M19.7,17.082c-0.02-0.031-0.041-0.061-0.051-0.35c-0.011-0.256-0.021-0.474-0.031-0.483c-0.011-0.011-0.021-0.278-0.031-0.586
		c-0.008-0.31-0.041-0.577-0.051-0.577c-0.021-0.01-0.029-0.082-0.029-0.174c0-0.094-0.01-0.34-0.021-0.361
		c-0.021-0.02-0.215-0.039-0.533-0.051c-0.48-0.021-0.502-0.029-0.563-0.102c-0.103-0.114-0.122-0.207-0.081-0.352
		c0.042-0.145,0.175-0.268,0.297-0.268c0.041,0,0.234,0.011,0.441,0.021l0.367,0.021v-0.104c0-0.061-0.02-0.061-0.029-0.215
		c-0.021-0.145-0.041-0.359-0.053-0.473c-0.01-0.113-0.041-0.34-0.061-0.514c-0.029-0.177-0.061-0.485-0.07-0.68
		c-0.021-0.195-0.053-0.546-0.072-0.782c-0.041-0.524-0.021-1.574,0.041-1.758c0.07-0.216,0.111-0.246,0.367-0.236
		c0.185,0,0.266,0.02,0.451,0.103c0.553,0.269,0.584,0.329,0.512,0.842c-0.051,0.34-0.062,1.071-0.021,1.574
		c0.011,0.166,0.032,0.473,0.041,0.679c0.041,0.699,0.052,0.791,0.071,0.936c0.01,0.072,0.041,0.195,0.041,0.238l-0.03,0.02
		c0-0.053-0.019-0.041-0.03,0.021c-0.021,0.193-0.011,0.225,0.041,0.205l0.113,0.123l0.02-0.123c0.021-0.103-0.02,0.113-0.02,0.102
		c0.041-0.122,0.062-0.01,0.102-0.03c0.104-0.042,0.186-0.021,0.246,0.062c0.021,0.031,0.051,0.053,0.061,0.041
		c0.012-0.01,0.062,0.021,0.104,0.062c0.031,0.042,0.082,0.082,0.112,0.082c0.021,0,0.041,0.011,0.041,0.021
		c0,0.041,0.327,0.246,0.431,0.308c0.041,0.03,0.062,0.062,0.041,0.062c-0.031,0-0.021,0.012,0.01,0.051
		c0.072,0.062,0.021,0.104-0.133,0.104c-0.052,0-0.103,0.009-0.113,0.03c-0.01,0.021-0.051,0.031-0.092,0.031
		c-0.031,0-0.082,0.03-0.111,0.072c-0.043,0.031-0.072,0.051-0.082,0.031c-0.012-0.021-0.032-0.031-0.043-0.031
		c-0.01,0.01-0.184,0.031-0.398,0.041c-0.206,0.01-0.432-0.092-0.452-0.072c-0.05,0.041-0.05,0.123-0.01,0.123
		c0.01,0,0.021,0.051,0.021,0.125c0,0.072,0,0.133,0.021,0.145c0.011,0.01,0.021,0.062,0.021,0.113c0,0.093-0.01,0.093-0.029,0.041
		c-0.021-0.041-0.021,0.093-0.01,0.359c0.01,0.237,0.02,0.646,0.029,0.916c0,0.268,0.021,0.361,0.03,0.401
		c0.01,0.052,0,0.071-0.041,0.062c-0.031,0-0.081,0-0.103,0.01c-0.102,0.053-0.205,0.074-0.357,0.062
		c-0.133,0-0.165,0.01-0.165,0.051c0,0.031-0.019,0.041-0.05,0.031c-0.021-0.012-0.051-0.012-0.051,0.01
		C19.741,17.111,19.72,17.111,19.7,17.082z M10.441,16.711c-0.03-0.02-0.091-0.174-0.133-0.35c-0.081-0.289-0.164-0.524-0.214-0.555
		c-0.021-0.021-0.246-0.689-0.246-0.74c0-0.021-0.052-0.217-0.124-0.434c-0.071-0.215-0.143-0.451-0.153-0.533
		c-0.031-0.135-0.061-0.289-0.225-0.926c-0.123-0.482-0.133-0.339-0.215,1.542c-0.041,0.968-0.051,1.06-0.184,1.356
		c-0.042,0.113-0.052,0.113-0.195,0.123c-0.185,0-0.297,0.013-0.624,0.062c-0.33,0.042-0.402,0.042-0.493-0.02
		c-0.082-0.053-0.431-0.555-1.055-1.584c-0.071-0.133-0.071-0.092,0.021,0.576c0.112,0.771,0.112,0.791-0.092,0.916
		c-0.164,0.103-0.758,0.256-0.912,0.236c-0.216-0.031-0.308-0.164-0.338-0.473c-0.021-0.196-0.062-1.081-0.102-1.204
		c-0.021-0.062,0-1.894,0-2.715V11.92l0.072-0.073c0.061-0.021,0.185-0.051,0.266-0.083c0.093-0.03,0.256-0.05,0.522-0.05
		c0.379,0,0.389,0,0.461,0.082c0.092,0.102,0.399,0.463,0.808,1.265c0.503,0.998,0.492,0.967,0.503,0.896
		c0-0.031,0-0.083,0.009-0.124c0.021-0.289,0.062-0.598,0.102-0.834c0.166-0.749,0.256-1.14,0.309-1.182
		c0.021-0.03,0.041-0.062,0.041-0.083c0-0.041,0.246-0.72,0.378-1.039c0.093-0.216,0.124-0.226,0.584-0.205
		c0.727,0.041,0.707,0.03,0.881,0.257c0.081,0.101,0.256,0.678,0.256,0.853c0,0.03,0.04,0.186,0.091,0.339
		c0.092,0.277,0.195,0.708,0.276,1.121c0.021,0.114,0.072,0.34,0.103,0.504c0.042,0.166,0.083,0.393,0.103,0.504
		c0.03,0.227,0.041,0.289,0.184,0.742c0.123,0.409,0.164,0.605,0.134,0.688c-0.011,0.041,0,0.051,0.02,0.041
		c0.021-0.01,0.03,0,0.03,0.021c0.012,0.144,0.032,0.194,0.062,0.205c0.021,0.012,0.031,0.021,0.011,0.041
		c-0.011,0.021,0.01,0.084,0.03,0.146c0.051,0.134,0.185,0.524,0.185,0.555c0,0.031-0.133-0.042-0.175-0.103
		c-0.029-0.031-0.029-0.01-0.029,0.072c0,0.123-0.01,0.133-0.071,0.082c-0.021-0.031-0.042-0.031-0.042-0.011
		s-0.031,0.052-0.081,0.072c-0.051,0.021-0.072,0.021-0.072,0s-0.021-0.021-0.042-0.011c-0.02,0.021-0.081,0.031-0.133,0.031
		c-0.04,0-0.092,0.021-0.103,0.031c-0.01,0.021-0.071,0.031-0.133,0.031c-0.061,0.01-0.132,0.021-0.153,0.031
		C10.512,16.742,10.472,16.732,10.441,16.711z M13.196,16.876c-0.43-0.063-0.798-0.206-0.851-0.33
		c-0.01-0.03-0.042-0.041-0.072-0.03c-0.019,0.01-0.041,0-0.03-0.011c0.02-0.03-0.123-0.144-0.205-0.144
		c-0.051-0.012-0.287-0.319-0.38-0.473c-0.152-0.238-0.173-0.402-0.184-1.298c0-0.545,0.01-0.862,0.031-0.903
		c0.009-0.043,0.04-0.217,0.051-0.392c0.01-0.196,0.041-0.372,0.062-0.423c0.03-0.061,0.05-0.123,0.05-0.143
		c0-0.072,0.165-0.463,0.236-0.556c0.032-0.052,0.093-0.125,0.123-0.155c0.042-0.04,0.113-0.124,0.164-0.195
		c0.081-0.112,0.297-0.287,0.563-0.463c0.072-0.051,0.133-0.102,0.133-0.124c0-0.009,0.051-0.05,0.102-0.081
		c0.093-0.052,0.205-0.042,0.604,0.01c0.092,0.01,0.215,0.021,0.277,0.021c0.071,0,0.103,0.011,0.082,0.03
		c-0.062,0.031-0.021,0.051,0.194,0.083c0.134,0.02,0.215,0.052,0.256,0.103c0.143,0.143,0.205,0.525,0.276,1.543
		c0.041,0.605,0.041,0.832,0,0.966c-0.02,0.062-0.042,0.194-0.051,0.298c-0.03,0.277-0.042,0.298-0.267,0.318
		c-0.267,0.021-1.023-0.03-1.312-0.082c-0.132-0.03-0.246-0.041-0.255-0.041c0,0.011-0.021,0.144-0.03,0.309
		c-0.052,0.617,0.091,1.143,0.418,1.43c0.185,0.164,0.288,0.205,0.441,0.185c0.256-0.04,0.461-0.112,0.605-0.195l0.143-0.083
		l0.215,0.053c0.113,0.029,0.236,0.051,0.256,0.051c0.03,0,0.051,0.01,0.051,0.029c0,0.021,0.032,0.032,0.062,0.032
		c0.092,0,0.164,0.03,0.164,0.082c0,0.021,0.021,0.042,0.04,0.042c0.032,0,0.083,0.041,0.124,0.081l0.083,0.072l-0.278,0.104
		c-0.143,0.051-0.286,0.112-0.296,0.123c-0.021,0.021-0.155,0.041-0.288,0.062c-0.133,0.011-0.317,0.042-0.41,0.062
		C13.892,16.896,13.431,16.907,13.196,16.876z M13.77,13.049c-0.01-0.285-0.031-0.565-0.041-0.606
		c-0.021-0.072-0.226-0.031-0.298,0.092c-0.143,0.216-0.266,0.545-0.347,0.896c-0.072,0.286-0.083,0.266,0.357,0.348
		C13.555,13.801,13.78,13.637,13.77,13.049z M17.283,17.102c0.029-0.021-0.01-0.031-0.155-0.031c-0.111,0-0.336-0.03-0.49-0.061
		c-0.155-0.042-0.317-0.175-0.359-0.185c-0.123-0.013-0.133-0.013-0.103-0.052c0.012-0.021,0.012-0.031-0.01-0.012
		c-0.021,0.012-0.133-0.029-0.255-0.092c-0.205-0.113-0.39-0.617-0.513-0.863c-0.02-0.043-0.092-0.145-0.153-0.217
		c-0.165-0.207-0.185-0.298-0.185-0.792c0-0.237-0.021-0.442-0.031-0.452c-0.041-0.021-0.01-0.402,0.041-0.443
		c0.042-0.03,0.104-0.268,0.194-0.74c0.032-0.143,0.104-0.381,0.154-0.534c0.062-0.145,0.113-0.278,0.113-0.298
		c0-0.052,0.298-0.802,0.35-0.843c0.02-0.021,0.051-0.052,0.091-0.114c0.124-0.164,0.298-0.206,0.328-0.206
		c0.032,0,0.246-0.081,0.318-0.081c0.113-0.011,0.472-0.042,0.625,0.062c0.042,0.03,0.103,0.052,0.143,0.052
		c0.042,0,0.155,0.039,0.246,0.091c0.094,0.052,0.194,0.094,0.226,0.094c0.092,0,0.246,0.103,0.287,0.206
		c0.051,0.112,0.061,0.082,0.029,0.493c-0.01,0.166-0.029,0.248-0.05,0.227c-0.01-0.032-0.02,0.071-0.02,0.236
		c0,0.176-0.01,0.268-0.031,0.258c-0.021-0.012-0.04,0.01-0.04,0.051s-0.012,0.113-0.012,0.153c0,0.041-0.01,0.103-0.02,0.125
		c-0.051,0.113-0.102,1.604-0.062,1.604c0.021,0,0.032,0.021,0.032,0.041c0,0.031-0.021,0.051-0.051,0.051
		c-0.042,0-0.103,0.021-0.155,0.042c-0.05,0.021-0.101,0.03-0.111,0.021c-0.021,0-0.083,0.021-0.154,0.053
		c-0.134,0.051-0.42-0.125-0.594-0.166c-0.061-0.02-0.164-0.041-0.236-0.051c-0.061-0.01-0.184-0.031-0.275-0.041
		c-0.082-0.021-0.154-0.021-0.165-0.01c0,0.01-0.02,0.113-0.03,0.225c-0.031,0.351,0.154,1.061,0.491,1.41
		c0.257,0.235,0.533,0.287,1.003,0.143c0.318-0.092,0.411-0.133,0.411-0.195c0-0.072,0.144-0.205,0.214-0.185
		c0.268,0.051,0.328,0.217,0.309,0.329c-0.01,0.031,0.01,0.072,0.041,0.092c0.039,0.031,0.039,0.031-0.031,0.083
		c-0.153,0.123-0.145,0.205-0.348,0.267c-0.113,0.043-0.215,0.084-0.215,0.092c-0.021,0.033-0.513,0.197-0.708,0.197
		C17.273,17.133,17.251,17.123,17.283,17.102z M17.006,13.74c0.051-0.145,0.093-0.793,0.071-1.234l-0.122-0.134l-0.123-0.032
		c-0.144,0.299-0.481,1.327-0.481,1.461c0,0.092,0.132,0.092,0.369,0.113c0.072,0,0.174-0.113,0.204-0.113
		C16.956,13.811,16.995,13.779,17.006,13.74z M23.151,16.812c-0.266-0.08-0.398-0.246-0.574-0.697
		c-0.205-0.525-0.379-1.76-0.389-2.768c0-0.514,0.184-0.596,0.748-0.34c0.143,0.072,0.277,0.135,0.286,0.135
		c0.021,0,0.062,0.021,0.093,0.062c0.03,0.03,0.072,0.062,0.092,0.062c0.102,0,0.123,0.133,0.133,0.926
		c0.01,0.463,0.021,0.793,0.043,0.802c0.01,0,0.029,0.124,0.029,0.269c0,0.143,0.012,0.297,0.032,0.36
		c0.01,0.051,0.01,0.091,0,0.081c-0.021-0.01-0.021,0.041-0.021,0.104c0.01,0.123,0.03,0.174,0.082,0.318l0.03,0.083l0.144-0.146
		c0.185-0.174,0.472-0.617,0.574-0.844c0.112-0.287,0.164-0.605,0.185-1.141c0.021-0.432,0.009-0.504-0.042-0.605
		c-0.051-0.113-0.051-0.125,0.01-0.279c0.051-0.164,0.174-0.276,0.288-0.276c0.03,0,0.173,0.062,0.327,0.133
		c0.145,0.062,0.275,0.125,0.296,0.125s0.041,0.03,0.051,0.062c0.021,0.041,0.041,0.062,0.103,0.052
		c0.053-0.011,0.084,0,0.104,0.041c0.021,0.042,0.051,0.062,0.083,0.062c0.112,0,0.103,0.475-0.021,1.203
		c-0.041,0.268-0.062,0.319-0.092,0.299c-0.021-0.011-0.031,0-0.031,0.041c0,0.072-0.092,0.287-0.092,0.227
		c0-0.041-0.011-0.031-0.041,0.011c-0.021,0.041-0.052,0.083-0.082,0.113c-0.043,0.041-0.043,0.03-0.021-0.021
		c0.01-0.043,0.01-0.072-0.011-0.072c-0.012,0-0.062,0.103-0.102,0.227c-0.082,0.195-0.328,0.639-0.4,0.68
		c-0.01,0.01-0.062,0.071-0.092,0.144c-0.082,0.133-0.112,0.144-0.072,0.042c0.021-0.061,0.021-0.072-0.02-0.072
		c-0.031,0.012-0.053,0.03-0.053,0.051c0.01,0.021-0.01,0.053-0.041,0.072c-0.02,0.021-0.051,0.062-0.051,0.092
		c-0.012,0.021-0.031,0.072-0.053,0.104c-0.02,0.021-0.029,0.052-0.01,0.052c0.01,0-0.02,0.021-0.07,0.062
		c-0.145,0.094-0.379,0.145-0.707,0.166c-0.166,0.008-0.348,0.03-0.409,0.03C23.327,16.846,23.223,16.835,23.151,16.812z
		 M24.596,16.475c0.01-0.011,0-0.021-0.03-0.011c-0.052,0.021-0.062,0.042-0.021,0.042C24.565,16.506,24.584,16.495,24.596,16.475z
		 M16.331,16.979c-0.01-0.021,0-0.021,0.03-0.011c0.052,0.021,0.062,0.042,0.01,0.042C16.36,17.01,16.341,17,16.331,16.979z
		 M18.01,13.234c0-0.03,0.01-0.041,0.022-0.01c0.01,0.021,0,0.041-0.012,0.062C18.01,13.298,18.01,13.275,18.01,13.234z"/>
	<path fill="#5B566D" d="M32.443,1H3.171C1.806,1,1,1.811,1,2.842v18.315C1,22.188,1.806,23,3.171,23h29.272
		c1.024,0,1.83-0.812,1.83-1.842V2.842C34.272,1.811,33.467,1,32.443,1z M32.272,20H3V8.04h29.272V20z"/>
</g>
</svg>
