<svg viewBox="0 0 120 34" xmlns="http://www.w3.org/2000/svg"><title>CP-logoLarge-RVB</title><g id="Page-1" fill="none" fill-rule="evenodd"><g id="CP-logoLarge-RVB"><g id="text" fill="#2F1A45"><path d="M44.3 18.5c-1.9 0-3.6.4-4.2.5-.5.1-.5.2-.5.2v12.9c0 .3.1.4.3.4h2.4c.1 0 .2-.1.2-.2v-2.6h.2c.6.1 1.2.1 1.6.1 3.1 0 4.9-1.8 4.9-5v-1.5c-.1-3-1.8-4.8-4.9-4.8zm1.9 6.4c0 1.1-.2 2.6-1.9 2.6-.5 0-1.2-.1-1.7-.1h-.1v-6.2h.1c.4-.1 1-.1 1.7-.1 1.7 0 1.9 1.5 1.9 2.6v1.2zM55 18.5c-1.9 0-3.1.2-4.4.6-.5.2-.5.3-.5.5v9.9c0 .1.1.3.3.3h2.4c.1 0 .2-.1.2-.3v-8.3h.1c.4-.1 1.3-.1 1.8-.1.3 0 .4-.1.4-.2v-2c.1-.4-.2-.4-.3-.4M59.2 21.9h-2.4c-.1 0-.2.1-.2.2v7.4c0 .1.1.2.2.2h2.4c.1 0 .2-.1.2-.2v-7.4c.1-.1 0-.2-.2-.2M59.2 18.6h-2.4c-.1 0-.2.1-.2.2v1.9c0 .1.1.2.2.2h2.4c.1 0 .2-.1.2-.2v-1.9c.1 0 0-.2-.2-.2M70.9 18.8c0-.1-.1-.2-.2-.2h-2.6c-.1 0-.2.1-.3.3l-2.1 8.5-2.1-8.5c0-.2-.2-.3-.3-.3h-2.6c-.1 0-.2.1-.2.2v.1l2.5 9c.5 1.6.6 1.9 1.5 1.9h2.4c.9-.1 1-.3 1.5-1.9l2.5-9.1c0 .1 0 .1 0 0M79.8 19c-.6-.2-1.4-.3-2.2-.4l.6-.8v-.1c0-.1-.1-.2-.3-.2h-2.4c-.2 0-.4.1-.5.3l-.4.8c-2.3.4-3.6 2.1-3.6 4.8V25c0 3.2 1.7 5 4.9 5 1.8 0 2.5-.2 3.7-.5h.1c.2-.1.2-.1.2-.4v-1.7c0-.1 0-.2-.2-.2h-.1c-.8.1-2.5.2-3.8.2-1.2 0-1.9-.6-1.9-2.2h5.9c.3 0 .4-.1.4-.4v-5.4c.1-.1.1-.2-.4-.4zm-1.9 4.2H74c.1-1.8 1.1-2.1 1.9-2.1.5 0 .8 0 1.3.1h.7v2zM44 15.4c1.2 0 2.1-.2 2.6-.4.3-.1.3-.1.3-.3v-1.8c0-.1-.1-.2-.2-.2-.7.1-1.3.2-2.4.2-.8 0-1.8-.4-1.8-2.5V8.9c0-2 1-2.5 1.8-2.5 1.1 0 1.7.1 2.4.2.1 0 .2-.1.2-.2V4.6c0-.2 0-.2-.3-.3-.5-.1-1.4-.4-2.6-.4-2.8 0-4.5 1.8-4.5 4.9v1.6c0 3.1 1.7 5 4.5 5M48.3 15.3h2.4c.1 0 .2-.1.2-.3V6.6h.1c.4-.1 1.1-.2 1.7-.2 1.3 0 1.9.5 1.9 1.7V15c0 .1.1.2.2.2h2.4c.1 0 .2-.1.2-.2V8c0-2.7-1.5-4.1-4.4-4.1-.8 0-1.5.1-2 .3h-.2V1.5c0-.1-.1-.2-.2-.2h-2.4c-.1 0-.2.1-.2.2V15c0 .1.2.3.3.3M92.3 1.4c-.6-.1-1.5-.2-2.1-.2-2.6 0-3.7 1-3.7 3.2v.9h-3.7v-.9c0-.5.1-.9.9-.9h2.1c.1 0 .1 0 .1-.2V1.5s0-.1-.2-.1c-.6-.1-1.5-.2-2.1-.2-2.6 0-3.7 1-3.7 3.2V15c0 .1.1.3.3.3h2.4c.1 0 .3-.1.3-.3V7.6h3.7V15c0 .1.1.3.3.3h2.4c.1 0 .3-.1.3-.3V7.6h2.9c.1 0 .2-.1.2-.2V5.6c0-.1-.1-.2-.2-.2h-2.9v-.9c0-.5.1-.9.9-.9h2.1c.1 0 .1 0 .1-.2V1.6c-.3-.2-.3-.2-.4-.2M101.6 4.5c-1-.3-2.3-.5-3.9-.5-3.1 0-4.9 1.8-4.9 5v1.5c0 3.2 1.7 5 4.9 5 1.8 0 2.5-.2 3.7-.5h.1c.2-.1.2-.1.2-.4v-1.7c0-.1 0-.2-.2-.2h-.1c-.8.1-2.5.2-3.8.2-1.3 0-1.9-.6-1.9-2.2h5.9c.3 0 .4-.1.4-.4V4.9c.1-.2.1-.3-.4-.4zm-1.9 4.1h-3.9c.1-1.8 1.1-2.1 1.9-2.1.5 0 .8 0 1.3.1h.7v2zM118.7 4c-1.9 0-3.1.2-4.3.6-.5.2-.5.3-.5.5V15c0 .1.1.3.3.3h2.4c.1 0 .2-.1.2-.3V6.7h.1c.4-.1 1.3-.1 1.8-.1.3 0 .4-.1.4-.2v-2c0-.4-.4-.4-.4-.4M73.5 15.4c2 0 3.4-.2 4.6-.5.5-.2.5-.3.5-.5v-10c0-.2-.1-.3-.3-.3h-2.4c-.1 0-.2.1-.2.3v8.5h-.1c-.4.1-1 .2-1.6.2-1.3 0-1.9-.5-1.9-1.7v-7c0-.1-.1-.2-.2-.2h-2.4c-.1 0-.2.1-.2.2v7c-.2 2.6 1.3 4 4.2 4M112.5 4h-2.4c-.1 0-.2.1-.2.3v8.5h-.1c-.4.1-1 .2-1.6.2-1.3 0-1.9-.5-1.9-1.7v-7c0-.1-.1-.2-.2-.2h-2.4c-.1 0-.2.1-.2.2v7c0 2.7 1.5 4 4.4 4 2 0 3.4-.2 4.6-.5.5-.2.5-.3.5-.5v-10c-.3-.1-.4-.3-.5-.3M68 8.8V7.7c0-2.7-1.3-3.8-4.6-3.8-2 0-3.4.4-3.7.5-.2.1-.3.2-.3.4v1.6c0 .1.1.2.2.2.4 0 2.6-.2 3.7-.2 1.3 0 1.8.6 1.8 1.7-.6-.1-1.3-.1-2.2-.1-2.7 0-4.1 1.2-4.3 3.5v.3c.2 2.3 1.6 3.5 4.3 3.5H64.3c1-.1 1.8-.2 2.5-.4.2 0 .4-.1.6-.1.5-.1.5-.2.5-.4V9.7l.1-.9c0 .1 0 0 0 0zm-2.9 4.1h-.2c-.4.1-1 .1-1.6.1-1.3 0-1.9-.3-1.9-1.3s.6-1.3 1.9-1.3c.6 0 1.1 0 1.6.1h.2v2.4z" id="Shape"/></g><g id="Group"><path d="M26.4 33.7H7.7c-4.1 0-7.5-3.4-7.5-7.5V7.5C.2 3.4 3.6 0 7.7 0h18.7c4.1 0 7.5 3.4 7.5 7.5v18.7c0 4.2-3.4 7.5-7.5 7.5" id="Shape" fill="#CF0A2C"/><path d="M17.1 29.6c-.4 0-.8-.1-1.1-.4l-2.5-2.4c-.5-.5-.8-1.3-.7-2L15 8.6l1.5.2L14.2 25c0 .2.1.6.3.7l2.5 2.4h.2l2.5-2.4c.2-.1.3-.5.3-.7L17.8 8.8l1.5-.2 2.2 16.2c.1.7-.2 1.5-.7 2l-2.5 2.4c-.4.2-.8.4-1.2.4z" id="Shape" fill="#FFF"/><path d="M19.2 9.3h-4.3c-.7 0-1.3-.6-1.3-1.3V6.2c0-.7.6-1.3 1.3-1.3h4.3c.7 0 1.3.6 1.3 1.3V8c0 .8-.6 1.3-1.3 1.3zm-4.1-1.5h3.8V6.4h-3.8v1.4zM12.2 21.5c-.2 0-.4-.1-.4-.1-.2-.1-.6-.4-.6-1.1v-2.6c0-.6.2-1.4.5-2l3.2-5.6 1.3.8-3.2 5.6c-.2.3-.3.9-.3 1.2v1.8l1.1-.9 1 1.2-1.8 1.3c-.3.3-.6.4-.8.4z" id="Shape" fill="#FFF"/></g></g></g></svg>